<svg width="400" height="300" viewBox="0 0 400 300" xmlns="http://www.w3.org/2000/svg">
  <!-- Fondo blanco -->
  <rect width="400" height="300" fill="white"/>
  
  <!-- Cielo con nubes -->
  <g stroke="#333" stroke-width="1" fill="none">
    <!-- Nube 1 -->
    <path d="M80 40 Q90 30 100 40 Q110 30 120 40 Q130 30 140 40 Q150 30 160 40 Q170 30 180 40 Q190 30 200 40 Q210 30 220 40 Q230 30 240 40 Q250 30 260 40 Q270 30 280 40 Q290 30 300 40 Q310 30 320 40 Q330 30 340 40 Q350 30 360 40 Q370 30 380 40 Q390 30 400 40 L400 50 L80 50 Z"/>
    
    <!-- Nube 2 -->
    <path d="M280 60 Q290 50 300 60 Q310 50 320 60 Q330 50 340 60 Q350 50 360 60 Q370 50 380 60 Q390 50 400 60 L400 70 L280 70 Z"/>
    
    <!-- Pájaros -->
    <path d="M350 30 Q355 25 360 30 Q365 25 370 30"/>
    <path d="M355 32 Q360 27 365 32 Q370 27 375 32"/>
  </g>
  
  <!-- Montañas principales -->
  <g stroke="#333" stroke-width="2" fill="none">
    <!-- Montaña 1 (izquierda) -->
    <path d="M0 200 L60 120 L120 180 L180 100 L240 160 L300 80 L360 140 L400 200 Z"/>
    
    <!-- Montaña 2 (centro) -->
    <path d="M50 200 L80 140 L110 180 L140 120 L170 160 L200 100 L230 140 L260 200 Z"/>
    
    <!-- Montaña 3 (derecha) -->
    <path d="M200 200 L230 140 L260 180 L290 120 L320 160 L350 100 L380 140 L400 200 Z"/>
  </g>
  
  <!-- Sombreado de montañas -->
  <g stroke="#666" stroke-width="1" fill="none">
    <!-- Líneas de sombreado para montaña 1 -->
    <line x1="30" y1="160" x2="30" y2="200"/>
    <line x1="60" y1="140" x2="60" y2="200"/>
    <line x1="90" y1="160" x2="90" y2="200"/>
    <line x1="120" y1="140" x2="120" y2="200"/>
    <line x1="150" y1="160" x2="150" y2="200"/>
    <line x1="180" y1="120" x2="180" y2="200"/>
    <line x1="210" y1="140" x2="210" y2="200"/>
    <line x1="240" y1="160" x2="240" y2="200"/>
    <line x1="270" y1="140" x2="270" y2="200"/>
    <line x1="300" y1="100" x2="300" y2="200"/>
    <line x1="330" y1="120" x2="330" y2="200"/>
    <line x1="360" y1="140" x2="360" y2="200"/>
    
    <!-- Líneas de sombreado para montaña 2 -->
    <line x1="65" y1="160" x2="65" y2="200"/>
    <line x1="80" y1="140" x2="80" y2="200"/>
    <line x1="95" y1="160" x2="95" y2="200"/>
    <line x1="110" y1="140" x2="110" y2="200"/>
    <line x1="125" y1="160" x2="125" y2="200"/>
    <line x1="140" y1="120" x2="140" y2="200"/>
    <line x1="155" y1="140" x2="155" y2="200"/>
    <line x1="170" y1="160" x2="170" y2="200"/>
    <line x1="185" y1="140" x2="185" y2="200"/>
    <line x1="200" y1="100" x2="200" y2="200"/>
    <line x1="215" y1="120" x2="215" y2="200"/>
    <line x1="230" y1="140" x2="230" y2="200"/>
    <line x1="245" y1="160" x2="245" y2="200"/>
    <line x1="260" y1="140" x2="260" y2="200"/>
    
    <!-- Líneas de sombreado para montaña 3 -->
    <line x1="215" y1="160" x2="215" y2="200"/>
    <line x1="230" y1="140" x2="230" y2="200"/>
    <line x1="245" y1="160" x2="245" y2="200"/>
    <line x1="260" y1="140" x2="260" y2="200"/>
    <line x1="275" y1="160" x2="275" y2="200"/>
    <line x1="290" y1="120" x2="290" y2="200"/>
    <line x1="305" y1="140" x2="305" y2="200"/>
    <line x1="320" y1="160" x2="320" y2="200"/>
    <line x1="335" y1="140" x2="335" y2="200"/>
    <line x1="350" y1="100" x2="350" y2="200"/>
    <line x1="365" y1="120" x2="365" y2="200"/>
    <line x1="380" y1="140" x2="380" y2="200"/>
  </g>
  
  <!-- Valle y río -->
  <g stroke="#333" stroke-width="1" fill="none">
    <!-- Río serpenteante -->
    <path d="M150 200 Q160 190 170 200 Q180 190 190 200 Q200 190 210 200 Q220 190 230 200 Q240 190 250 200" stroke-dasharray="5,5"/>
    
    <!-- Árboles en las laderas -->
    <g stroke="#333" stroke-width="1">
      <!-- Árboles izquierda -->
      <line x1="80" y1="180" x2="80" y2="200"/>
      <line x1="75" y1="175" x2="85" y2="175"/>
      <line x1="73" y1="170" x2="87" y2="170"/>
      <line x1="70" y1="165" x2="90" y2="165"/>
      
      <line x1="120" y1="180" x2="120" y2="200"/>
      <line x1="115" y1="175" x2="125" y2="175"/>
      <line x1="113" y1="170" x2="127" y2="170"/>
      <line x1="110" y1="165" x2="130" y2="165"/>
      
      <!-- Árboles derecha -->
      <line x1="280" y1="180" x2="280" y2="200"/>
      <line x1="275" y1="175" x2="285" y2="175"/>
      <line x1="273" y1="170" x2="287" y2="170"/>
      <line x1="270" y1="165" x2="290" y2="165"/>
      
      <line x1="320" y1="180" x2="320" y2="200"/>
      <line x1="315" y1="175" x2="325" y2="175"/>
      <line x1="313" y1="170" x2="327" y2="170"/>
      <line x1="310" y1="165" x2="330" y2="165"/>
    </g>
  </g>
  
  <!-- Primer plano -->
  <g stroke="#333" stroke-width="2" fill="none">
    <!-- Colina izquierda -->
    <path d="M0 200 Q50 190 100 200"/>
    
    <!-- Árboles primer plano izquierda -->
    <line x1="30" y1="190" x2="30" y2="200"/>
    <line x1="25" y1="185" x2="35" y2="185"/>
    <line x1="23" y1="180" x2="37" y2="180"/>
    <line x1="20" y1="175" x2="40" y2="175"/>
    
    <line x1="60" y1="190" x2="60" y2="200"/>
    <line x1="55" y1="185" x2="65" y2="185"/>
    <line x1="53" y1="180" x2="67" y2="180"/>
    <line x1="50" y1="175" x2="70" y2="175"/>
    
    <!-- Formaciones rocosas derecha -->
    <path d="M300 200 L320 190 L340 200 L360 185 L380 200 L400 200"/>
    <path d="M320 190 L325 185 L330 190"/>
    <path d="M340 200 L345 195 L350 200"/>
    <path d="M360 185 L365 180 L370 185"/>
    
    <!-- Árboles primer plano derecha -->
    <line x1="330" y1="190" x2="330" y2="200"/>
    <line x1="325" y1="185" x2="335" y2="185"/>
    <line x1="323" y1="180" x2="337" y2="180"/>
    <line x1="320" y1="175" x2="340" y2="175"/>
    
    <line x1="370" y1="190" x2="370" y2="200"/>
    <line x1="365" y1="185" x2="375" y2="185"/>
    <line x1="363" y1="180" x2="377" y2="180"/>
    <line x1="360" y1="175" x2="380" y2="175"/>
  </g>
  
  <!-- Textura del suelo -->
  <g stroke="#999" stroke-width="0.5" fill="none">
    <line x1="0" y1="200" x2="400" y2="200"/>
    <line x1="0" y1="205" x2="400" y2="205"/>
    <line x1="0" y1="210" x2="400" y2="210"/>
    <line x1="0" y1="215" x2="400" y2="215"/>
    <line x1="0" y1="220" x2="400" y2="220"/>
    <line x1="0" y1="225" x2="400" y2="225"/>
    <line x1="0" y1="230" x2="400" y2="230"/>
    <line x1="0" y1="235" x2="400" y2="235"/>
    <line x1="0" y1="240" x2="400" y2="240"/>
    <line x1="0" y1="245" x2="400" y2="245"/>
    <line x1="0" y1="250" x2="400" y2="250"/>
    <line x1="0" y1="255" x2="400" y2="255"/>
    <line x1="0" y1="260" x2="400" y2="260"/>
    <line x1="0" y1="265" x2="400" y2="265"/>
    <line x1="0" y1="270" x2="400" y2="270"/>
    <line x1="0" y1="275" x2="400" y2="275"/>
    <line x1="0" y1="280" x2="400" y2="280"/>
    <line x1="0" y1="285" x2="400" y2="285"/>
    <line x1="0" y1="290" x2="400" y2="290"/>
    <line x1="0" y1="295" x2="400" y2="295"/>
    <line x1="0" y1="300" x2="400" y2="300"/>
  </g>
</svg>
